<?xml version="1.0" standalone="no"?>
<!DOCTYPE svg PUBLIC "-//W3C//DTD SVG 20010904//EN"
 "http://www.w3.org/TR/2001/REC-SVG-20010904/DTD/svg10.dtd">
<svg version="1.0" xmlns="http://www.w3.org/2000/svg"
 width="512.000000pt" height="512.000000pt" viewBox="0 0 512.000000 512.000000"
 preserveAspectRatio="xMidYMid meet">
<metadata>
Created by potrace 1.14, written by Peter Selinger 2001-2017
</metadata>
<g transform="translate(0.000000,512.000000) scale(0.100000,-0.100000)"
fill="#000000" stroke="none">
<path d="M390 5104 c-190 -50 -339 -204 -379 -392 -8 -38 -11 -636 -11 -2161
0 -1899 2 -2113 16 -2162 58 -197 195 -330 384 -376 80 -19 4238 -19 4320 0
191 45 347 203 388 392 8 36 11 663 9 2180 l-2 2130 -23 59 c-64 168 -183 277
-361 330 -49 14 -263 16 -2170 15 -1816 0 -2124 -2 -2171 -15z"/>
</g>
</svg>
